<svg width="14" height="14" viewBox="0 0 14 14" fill="none" xmlns="http://www.w3.org/2000/svg">
<path d="M13.4001 13.3996V8.71161C13.4001 6.40761 12.9041 4.64761 10.2161 4.64761C8.9201 4.64761 8.0561 5.35161 7.7041 6.02361H7.6721V4.85561H5.1281V13.3996H7.7841V9.15961C7.7841 8.03961 7.9921 6.96761 9.3681 6.96761C10.7281 6.96761 10.7441 8.23161 10.7441 9.22361V13.3836H13.4001V13.3996ZM0.808098 4.85561H3.4641V13.3996H0.808098V4.85561ZM2.1361 0.599609C1.2881 0.599609 0.600098 1.28761 0.600098 2.13561C0.600098 2.98361 1.2881 3.68761 2.1361 3.68761C2.9841 3.68761 3.6721 2.98361 3.6721 2.13561C3.6721 1.28761 2.9841 0.599609 2.1361 0.599609Z" fill="#6A6A6A"/>
</svg>
